<?xml version="1.0" encoding="UTF-8"?> <svg xmlns="http://www.w3.org/2000/svg" xmlns:xlink="http://www.w3.org/1999/xlink" width="158" zoomAndPan="magnify" viewBox="0 0 118.5 33.749998" height="45" preserveAspectRatio="xMidYMid meet" version="1.0"><defs><g></g></defs><g fill="#0a0a23" fill-opacity="1"><g transform="translate(0.601429, 30.657206)"><g><path d="M 5.265625 -9.609375 C 5.265625 -8.523438 5.375 -7.523438 5.59375 -6.609375 C 5.820312 -5.703125 6.164062 -4.921875 6.625 -4.265625 C 7.09375 -3.609375 7.6875 -3.097656 8.40625 -2.734375 C 9.132812 -2.378906 10.007812 -2.203125 11.03125 -2.203125 C 12.519531 -2.203125 13.710938 -2.5 14.609375 -3.09375 C 15.503906 -3.6875 16.113281 -4.441406 16.4375 -5.359375 L 19.453125 -4.5 C 19.234375 -3.925781 18.929688 -3.347656 18.546875 -2.765625 C 18.160156 -2.191406 17.640625 -1.671875 16.984375 -1.203125 C 16.335938 -0.742188 15.523438 -0.363281 14.546875 -0.0625 C 13.578125 0.226562 12.40625 0.375 11.03125 0.375 C 7.976562 0.375 5.648438 -0.53125 4.046875 -2.34375 C 2.453125 -4.164062 1.65625 -6.875 1.65625 -10.46875 C 1.65625 -12.40625 1.894531 -14.039062 2.375 -15.375 C 2.863281 -16.71875 3.523438 -17.8125 4.359375 -18.65625 C 5.203125 -19.5 6.179688 -20.109375 7.296875 -20.484375 C 8.421875 -20.859375 9.625 -21.046875 10.90625 -21.046875 C 12.632812 -21.046875 14.078125 -20.765625 15.234375 -20.203125 C 16.398438 -19.640625 17.335938 -18.863281 18.046875 -17.875 C 18.753906 -16.894531 19.253906 -15.734375 19.546875 -14.390625 C 19.847656 -13.054688 20 -11.613281 20 -10.0625 L 20 -9.609375 Z M 16.453125 -12.234375 C 16.265625 -14.410156 15.710938 -16 14.796875 -17 C 13.878906 -18 12.5625 -18.5 10.84375 -18.5 C 10.269531 -18.5 9.664062 -18.40625 9.03125 -18.21875 C 8.40625 -18.039062 7.820312 -17.710938 7.28125 -17.234375 C 6.75 -16.765625 6.300781 -16.125 5.9375 -15.3125 C 5.570312 -14.507812 5.363281 -13.484375 5.3125 -12.234375 Z M 16.453125 -12.234375 "></path></g></g></g><g fill="#0a0a23" fill-opacity="1"><g transform="translate(20.262651, 30.657206)"><g><path d="M 11.703125 0 L 7.640625 0 L 0.140625 -20.65625 L 3.796875 -20.65625 L 8.34375 -7.21875 C 8.425781 -6.9375 8.53125 -6.59375 8.65625 -6.1875 C 8.78125 -5.789062 8.90625 -5.375 9.03125 -4.9375 C 9.15625 -4.507812 9.269531 -4.09375 9.375 -3.6875 C 9.488281 -3.289062 9.582031 -2.957031 9.65625 -2.6875 C 9.738281 -2.957031 9.835938 -3.289062 9.953125 -3.6875 C 10.078125 -4.09375 10.203125 -4.503906 10.328125 -4.921875 C 10.453125 -5.347656 10.582031 -5.757812 10.71875 -6.15625 C 10.851562 -6.5625 10.972656 -6.90625 11.078125 -7.1875 L 15.765625 -20.65625 L 19.40625 -20.65625 Z M 11.703125 0 "></path></g></g></g><g fill="#0a0a23" fill-opacity="1"><g transform="translate(39.900308, 30.657206)"><g><path d="M 20.09375 -10.34375 C 20.09375 -6.726562 19.296875 -4.035156 17.703125 -2.265625 C 16.117188 -0.503906 13.8125 0.375 10.78125 0.375 C 9.34375 0.375 8.054688 0.160156 6.921875 -0.265625 C 5.796875 -0.703125 4.835938 -1.363281 4.046875 -2.25 C 3.265625 -3.144531 2.664062 -4.265625 2.25 -5.609375 C 1.84375 -6.953125 1.640625 -8.53125 1.640625 -10.34375 C 1.640625 -17.476562 4.726562 -21.046875 10.90625 -21.046875 C 12.507812 -21.046875 13.890625 -20.820312 15.046875 -20.375 C 16.210938 -19.925781 17.164062 -19.253906 17.90625 -18.359375 C 18.65625 -17.472656 19.207031 -16.363281 19.5625 -15.03125 C 19.914062 -13.695312 20.09375 -12.132812 20.09375 -10.34375 Z M 16.5 -10.34375 C 16.5 -11.945312 16.375 -13.269531 16.125 -14.3125 C 15.875 -15.363281 15.507812 -16.203125 15.03125 -16.828125 C 14.550781 -17.453125 13.96875 -17.882812 13.28125 -18.125 C 12.59375 -18.375 11.816406 -18.5 10.953125 -18.5 C 10.078125 -18.5 9.285156 -18.367188 8.578125 -18.109375 C 7.867188 -17.847656 7.265625 -17.398438 6.765625 -16.765625 C 6.273438 -16.140625 5.898438 -15.304688 5.640625 -14.265625 C 5.378906 -13.222656 5.25 -11.914062 5.25 -10.34375 C 5.25 -8.738281 5.390625 -7.410156 5.671875 -6.359375 C 5.953125 -5.316406 6.335938 -4.484375 6.828125 -3.859375 C 7.316406 -3.234375 7.894531 -2.789062 8.5625 -2.53125 C 9.226562 -2.28125 9.957031 -2.15625 10.75 -2.15625 C 11.625 -2.15625 12.414062 -2.28125 13.125 -2.53125 C 13.84375 -2.78125 14.445312 -3.21875 14.9375 -3.84375 C 15.4375 -4.46875 15.820312 -5.304688 16.09375 -6.359375 C 16.363281 -7.410156 16.5 -8.738281 16.5 -10.34375 Z M 16.5 -10.34375 "></path></g></g></g><g fill="#0a0a23" fill-opacity="1"><g transform="translate(61.501722, 30.657206)"><g><path d="M 2.640625 0 L 2.640625 -28.34375 L 6.0625 -28.34375 L 6.0625 0 Z M 2.640625 0 "></path></g></g></g><g fill="#0a0a23" fill-opacity="1"><g transform="translate(70.142301, 30.657206)"><g><path d="M 11.703125 0 L 7.640625 0 L 0.140625 -20.65625 L 3.796875 -20.65625 L 8.34375 -7.21875 C 8.425781 -6.9375 8.53125 -6.59375 8.65625 -6.1875 C 8.78125 -5.789062 8.90625 -5.375 9.03125 -4.9375 C 9.15625 -4.507812 9.269531 -4.09375 9.375 -3.6875 C 9.488281 -3.289062 9.582031 -2.957031 9.65625 -2.6875 C 9.738281 -2.957031 9.835938 -3.289062 9.953125 -3.6875 C 10.078125 -4.09375 10.203125 -4.503906 10.328125 -4.921875 C 10.453125 -5.347656 10.582031 -5.757812 10.71875 -6.15625 C 10.851562 -6.5625 10.972656 -6.90625 11.078125 -7.1875 L 15.765625 -20.65625 L 19.40625 -20.65625 Z M 11.703125 0 "></path></g></g></g><g fill="#0a0a23" fill-opacity="1"><g transform="translate(89.779946, 30.657206)"><g><path d="M 2.609375 -25.046875 L 2.609375 -28.34375 L 6.046875 -28.34375 L 6.046875 -25.046875 Z M 2.609375 0 L 2.609375 -20.65625 L 6.046875 -20.65625 L 6.046875 0 Z M 2.609375 0 "></path></g></g></g><g fill="#0a0a23" fill-opacity="1"><g transform="translate(98.420525, 30.657206)"><g><path d="M 5.25 -10.421875 C 5.25 -9.242188 5.332031 -8.15625 5.5 -7.15625 C 5.675781 -6.164062 5.96875 -5.3125 6.375 -4.59375 C 6.78125 -3.875 7.316406 -3.316406 7.984375 -2.921875 C 8.648438 -2.523438 9.472656 -2.328125 10.453125 -2.328125 C 11.679688 -2.328125 12.703125 -2.65625 13.515625 -3.3125 C 14.335938 -3.976562 14.847656 -5 15.046875 -6.375 L 18.515625 -6.15625 C 18.398438 -5.300781 18.148438 -4.476562 17.765625 -3.6875 C 17.390625 -2.894531 16.875 -2.195312 16.21875 -1.59375 C 15.5625 -1 14.757812 -0.519531 13.8125 -0.15625 C 12.875 0.195312 11.789062 0.375 10.5625 0.375 C 8.9375 0.375 7.554688 0.101562 6.421875 -0.4375 C 5.296875 -0.988281 4.378906 -1.742188 3.671875 -2.703125 C 2.960938 -3.660156 2.445312 -4.789062 2.125 -6.09375 C 1.8125 -7.40625 1.65625 -8.820312 1.65625 -10.34375 C 1.65625 -11.738281 1.769531 -12.96875 2 -14.03125 C 2.226562 -15.09375 2.550781 -16.019531 2.96875 -16.8125 C 3.382812 -17.613281 3.867188 -18.28125 4.421875 -18.8125 C 4.984375 -19.351562 5.59375 -19.785156 6.25 -20.109375 C 6.90625 -20.441406 7.59375 -20.679688 8.3125 -20.828125 C 9.039062 -20.972656 9.773438 -21.046875 10.515625 -21.046875 C 11.671875 -21.046875 12.703125 -20.882812 13.609375 -20.5625 C 14.515625 -20.25 15.296875 -19.8125 15.953125 -19.25 C 16.609375 -18.695312 17.140625 -18.046875 17.546875 -17.296875 C 17.953125 -16.546875 18.238281 -15.738281 18.40625 -14.875 L 14.875 -14.609375 C 14.695312 -15.753906 14.242188 -16.664062 13.515625 -17.34375 C 12.785156 -18.019531 11.753906 -18.359375 10.421875 -18.359375 C 9.441406 -18.359375 8.625 -18.191406 7.96875 -17.859375 C 7.3125 -17.535156 6.78125 -17.046875 6.375 -16.390625 C 5.96875 -15.734375 5.675781 -14.910156 5.5 -13.921875 C 5.332031 -12.929688 5.25 -11.765625 5.25 -10.421875 Z M 5.25 -10.421875 "></path></g></g></g></svg> 