<?xml version="1.0" encoding="UTF-8"?> <svg xmlns="http://www.w3.org/2000/svg" xmlns:xlink="http://www.w3.org/1999/xlink" width="512" zoomAndPan="magnify" viewBox="0 0 384 383.999986" height="512" preserveAspectRatio="xMidYMid meet" version="1.0"><defs><g></g><clipPath id="id1"><path d="M 7.125 6.9375 L 376.875 6.9375 L 376.875 376.6875 L 7.125 376.6875 Z M 7.125 6.9375 " clip-rule="nonzero"></path></clipPath><clipPath id="id2"><path d="M 376.875 191.8125 C 376.875 194.839844 376.800781 197.863281 376.652344 200.882812 C 376.503906 203.90625 376.28125 206.921875 375.984375 209.933594 C 375.6875 212.945312 375.320312 215.945312 374.875 218.941406 C 374.429688 221.933594 373.914062 224.914062 373.324219 227.878906 C 372.734375 230.847656 372.070312 233.800781 371.335938 236.734375 C 370.601562 239.667969 369.792969 242.582031 368.914062 245.480469 C 368.035156 248.375 367.089844 251.246094 366.070312 254.09375 C 365.050781 256.945312 363.960938 259.765625 362.804688 262.5625 C 361.644531 265.355469 360.417969 268.121094 359.125 270.855469 C 357.832031 273.59375 356.472656 276.292969 355.046875 278.960938 C 353.621094 281.628906 352.128906 284.261719 350.574219 286.859375 C 349.019531 289.453125 347.398438 292.007812 345.71875 294.523438 C 344.039062 297.039062 342.296875 299.511719 340.492188 301.941406 C 338.691406 304.371094 336.832031 306.757812 334.910156 309.097656 C 332.992188 311.433594 331.015625 313.726562 328.984375 315.96875 C 326.953125 318.210938 324.867188 320.398438 322.726562 322.539062 C 320.585938 324.679688 318.398438 326.765625 316.15625 328.796875 C 313.914062 330.828125 311.625 332.804688 309.285156 334.722656 C 306.945312 336.644531 304.5625 338.503906 302.128906 340.304688 C 299.699219 342.109375 297.226562 343.851562 294.710938 345.53125 C 292.195312 347.210938 289.640625 348.828125 287.046875 350.386719 C 284.449219 351.941406 281.820312 353.433594 279.148438 354.859375 C 276.480469 356.285156 273.78125 357.644531 271.046875 358.9375 C 268.308594 360.230469 265.542969 361.457031 262.75 362.613281 C 259.953125 363.773438 257.132812 364.863281 254.285156 365.878906 C 251.433594 366.898438 248.5625 367.847656 245.667969 368.726562 C 242.773438 369.605469 239.855469 370.414062 236.921875 371.148438 C 233.988281 371.882812 231.035156 372.546875 228.066406 373.136719 C 225.101562 373.726562 222.121094 374.242188 219.128906 374.6875 C 216.136719 375.128906 213.132812 375.5 210.121094 375.796875 C 207.109375 376.09375 204.09375 376.316406 201.074219 376.464844 C 198.050781 376.613281 195.027344 376.6875 192 376.6875 C 188.976562 376.6875 185.953125 376.613281 182.929688 376.464844 C 179.90625 376.316406 176.890625 376.09375 173.878906 375.796875 C 170.867188 375.5 167.867188 375.128906 164.875 374.6875 C 161.882812 374.242188 158.902344 373.726562 155.933594 373.136719 C 152.964844 372.546875 150.015625 371.882812 147.078125 371.148438 C 144.144531 370.414062 141.230469 369.605469 138.335938 368.726562 C 135.4375 367.847656 132.566406 366.898438 129.71875 365.878906 C 126.871094 364.863281 124.046875 363.773438 121.253906 362.613281 C 118.457031 361.457031 115.691406 360.230469 112.957031 358.9375 C 110.222656 357.644531 107.519531 356.285156 104.851562 354.859375 C 102.183594 353.433594 99.550781 351.941406 96.957031 350.386719 C 94.359375 348.828125 91.804688 347.210938 89.289062 345.53125 C 86.773438 343.851562 84.300781 342.109375 81.871094 340.304688 C 79.441406 338.503906 77.054688 336.644531 74.71875 334.722656 C 72.378906 332.804688 70.089844 330.828125 67.847656 328.796875 C 65.605469 326.765625 63.414062 324.679688 61.273438 322.539062 C 59.136719 320.398438 57.050781 318.210938 55.015625 315.96875 C 52.984375 313.726562 51.011719 311.433594 49.089844 309.097656 C 47.171875 306.757812 45.308594 304.371094 43.507812 301.941406 C 41.707031 299.511719 39.964844 297.039062 38.28125 294.523438 C 36.601562 292.007812 34.984375 289.453125 33.429688 286.859375 C 31.871094 284.261719 30.382812 281.628906 28.957031 278.960938 C 27.53125 276.292969 26.167969 273.59375 24.875 270.855469 C 23.582031 268.121094 22.355469 265.355469 21.199219 262.5625 C 20.039062 259.765625 18.953125 256.945312 17.933594 254.09375 C 16.914062 251.246094 15.964844 248.375 15.085938 245.480469 C 14.207031 242.582031 13.402344 239.667969 12.667969 236.734375 C 11.929688 233.800781 11.269531 230.847656 10.679688 227.878906 C 10.089844 224.914062 9.570312 221.933594 9.125 218.941406 C 8.683594 215.945312 8.3125 212.945312 8.015625 209.933594 C 7.71875 206.921875 7.496094 203.90625 7.347656 200.882812 C 7.199219 197.863281 7.125 194.839844 7.125 191.8125 C 7.125 188.789062 7.199219 185.761719 7.347656 182.742188 C 7.496094 179.71875 7.71875 176.703125 8.015625 173.691406 C 8.3125 170.679688 8.683594 167.679688 9.125 164.6875 C 9.570312 161.691406 10.089844 158.714844 10.679688 155.746094 C 11.269531 152.777344 11.929688 149.828125 12.667969 146.890625 C 13.402344 143.957031 14.207031 141.042969 15.085938 138.148438 C 15.964844 135.25 16.914062 132.378906 17.933594 129.53125 C 18.953125 126.683594 20.039062 123.859375 21.199219 121.0625 C 22.355469 118.269531 23.582031 115.503906 24.875 112.769531 C 26.167969 110.035156 27.53125 107.332031 28.957031 104.664062 C 30.382812 101.996094 31.871094 99.363281 33.429688 96.769531 C 34.984375 94.171875 36.601562 91.617188 38.28125 89.101562 C 39.964844 86.585938 41.707031 84.113281 43.507812 81.683594 C 45.308594 79.253906 47.171875 76.867188 49.089844 74.53125 C 51.011719 72.191406 52.984375 69.898438 55.015625 67.660156 C 57.050781 65.417969 59.136719 63.226562 61.273438 61.085938 C 63.414062 58.945312 65.605469 56.863281 67.847656 54.828125 C 70.089844 52.796875 72.378906 50.820312 74.71875 48.902344 C 77.054688 46.984375 79.441406 45.121094 81.871094 43.320312 C 84.300781 41.519531 86.773438 39.777344 89.289062 38.09375 C 91.804688 36.414062 94.359375 34.796875 96.957031 33.242188 C 99.550781 31.683594 102.183594 30.195312 104.851562 28.769531 C 107.519531 27.339844 110.222656 25.980469 112.957031 24.6875 C 115.691406 23.394531 118.457031 22.167969 121.253906 21.011719 C 124.046875 19.851562 126.871094 18.765625 129.71875 17.746094 C 132.566406 16.726562 135.4375 15.777344 138.335938 14.898438 C 141.230469 14.019531 144.144531 13.214844 147.078125 12.476562 C 150.015625 11.742188 152.964844 11.082031 155.933594 10.492188 C 158.902344 9.898438 161.882812 9.382812 164.875 8.9375 C 167.867188 8.496094 170.867188 8.125 173.878906 7.828125 C 176.890625 7.53125 179.90625 7.308594 182.929688 7.160156 C 185.953125 7.011719 188.976562 6.9375 192 6.9375 C 195.027344 6.9375 198.050781 7.011719 201.074219 7.160156 C 204.09375 7.308594 207.109375 7.53125 210.121094 7.828125 C 213.132812 8.125 216.136719 8.496094 219.128906 8.9375 C 222.121094 9.382812 225.101562 9.898438 228.066406 10.492188 C 231.035156 11.082031 233.988281 11.742188 236.921875 12.476562 C 239.855469 13.214844 242.773438 14.019531 245.667969 14.898438 C 248.5625 15.777344 251.433594 16.726562 254.285156 17.746094 C 257.132812 18.765625 259.953125 19.851562 262.75 21.011719 C 265.542969 22.167969 268.308594 23.394531 271.046875 24.6875 C 273.78125 25.980469 276.480469 27.339844 279.148438 28.769531 C 281.820312 30.195312 284.449219 31.683594 287.046875 33.242188 C 289.640625 34.796875 292.195312 36.414062 294.710938 38.09375 C 297.226562 39.777344 299.699219 41.519531 302.128906 43.320312 C 304.5625 45.121094 306.945312 46.984375 309.285156 48.902344 C 311.625 50.820312 313.914062 52.796875 316.15625 54.828125 C 318.398438 56.863281 320.585938 58.945312 322.726562 61.085938 C 324.867188 63.226562 326.953125 65.417969 328.984375 67.660156 C 331.015625 69.898438 332.992188 72.191406 334.910156 74.53125 C 336.832031 76.867188 338.691406 79.253906 340.492188 81.683594 C 342.296875 84.113281 344.039062 86.585938 345.71875 89.101562 C 347.398438 91.617188 349.019531 94.171875 350.574219 96.769531 C 352.128906 99.363281 353.621094 101.996094 355.046875 104.664062 C 356.472656 107.332031 357.832031 110.035156 359.125 112.769531 C 360.417969 115.503906 361.644531 118.269531 362.804688 121.0625 C 363.960938 123.859375 365.050781 126.683594 366.070312 129.53125 C 367.089844 132.378906 368.035156 135.25 368.914062 138.148438 C 369.792969 141.042969 370.601562 143.957031 371.335938 146.890625 C 372.070312 149.828125 372.734375 152.777344 373.324219 155.746094 C 373.914062 158.714844 374.429688 161.691406 374.875 164.6875 C 375.320312 167.679688 375.6875 170.679688 375.984375 173.691406 C 376.28125 176.703125 376.503906 179.71875 376.652344 182.742188 C 376.800781 185.761719 376.875 188.789062 376.875 191.8125 Z M 376.875 191.8125 " clip-rule="nonzero"></path></clipPath><linearGradient x1="0.00000000217902" gradientTransform="matrix(369.749956, 0, 0, 369.749956, 7.125912, 6.93795)" y1="0.00000000215765" x2="1.004902" gradientUnits="userSpaceOnUse" y2="0.995049" id="id3"><stop stop-opacity="1" stop-color="rgb(45.098877%, 47.799683%, 99.998474%)" offset="0"></stop><stop stop-opacity="1" stop-color="rgb(45.23468%, 47.846985%, 99.995422%)" offset="0.015625"></stop><stop stop-opacity="1" stop-color="rgb(45.506287%, 47.944641%, 99.989319%)" offset="0.03125"></stop><stop stop-opacity="1" stop-color="rgb(45.777893%, 48.042297%, 99.983215%)" offset="0.046875"></stop><stop stop-opacity="1" stop-color="rgb(46.051025%, 48.139954%, 99.977112%)" offset="0.0625"></stop><stop stop-opacity="1" stop-color="rgb(46.322632%, 48.236084%, 99.971008%)" offset="0.078125"></stop><stop stop-opacity="1" stop-color="rgb(46.594238%, 48.33374%, 99.964905%)" offset="0.09375"></stop><stop stop-opacity="1" stop-color="rgb(46.865845%, 48.431396%, 99.958801%)" offset="0.109375"></stop><stop stop-opacity="1" stop-color="rgb(47.137451%, 48.529053%, 99.952698%)" offset="0.125"></stop><stop stop-opacity="1" stop-color="rgb(47.409058%, 48.625183%, 99.946594%)" offset="0.140625"></stop><stop stop-opacity="1" stop-color="rgb(47.680664%, 48.722839%, 99.940491%)" offset="0.15625"></stop><stop stop-opacity="1" stop-color="rgb(47.952271%, 48.820496%, 99.934387%)" offset="0.171875"></stop><stop stop-opacity="1" stop-color="rgb(48.223877%, 48.918152%, 99.928284%)" offset="0.1875"></stop><stop stop-opacity="1" stop-color="rgb(48.495483%, 49.014282%, 99.92218%)" offset="0.203125"></stop><stop stop-opacity="1" stop-color="rgb(48.768616%, 49.111938%, 99.916077%)" offset="0.21875"></stop><stop stop-opacity="1" stop-color="rgb(49.040222%, 49.209595%, 99.909973%)" offset="0.234375"></stop><stop stop-opacity="1" stop-color="rgb(49.311829%, 49.307251%, 99.90387%)" offset="0.25"></stop><stop stop-opacity="1" stop-color="rgb(49.583435%, 49.403381%, 99.897766%)" offset="0.265625"></stop><stop stop-opacity="1" stop-color="rgb(49.855042%, 49.501038%, 99.891663%)" offset="0.28125"></stop><stop stop-opacity="1" stop-color="rgb(50.126648%, 49.598694%, 99.885559%)" offset="0.296875"></stop><stop stop-opacity="1" stop-color="rgb(50.398254%, 49.69635%, 99.879456%)" offset="0.3125"></stop><stop stop-opacity="1" stop-color="rgb(50.669861%, 49.79248%, 99.871826%)" offset="0.328125"></stop><stop stop-opacity="1" stop-color="rgb(50.941467%, 49.890137%, 99.865723%)" offset="0.34375"></stop><stop stop-opacity="1" stop-color="rgb(51.213074%, 49.987793%, 99.859619%)" offset="0.359375"></stop><stop stop-opacity="1" stop-color="rgb(51.48468%, 50.085449%, 99.853516%)" offset="0.375"></stop><stop stop-opacity="1" stop-color="rgb(51.757812%, 50.18158%, 99.847412%)" offset="0.390625"></stop><stop stop-opacity="1" stop-color="rgb(52.029419%, 50.279236%, 99.841309%)" offset="0.40625"></stop><stop stop-opacity="1" stop-color="rgb(52.301025%, 50.376892%, 99.835205%)" offset="0.421875"></stop><stop stop-opacity="1" stop-color="rgb(52.572632%, 50.474548%, 99.829102%)" offset="0.4375"></stop><stop stop-opacity="1" stop-color="rgb(52.844238%, 50.570679%, 99.822998%)" offset="0.453125"></stop><stop stop-opacity="1" stop-color="rgb(53.115845%, 50.668335%, 99.816895%)" offset="0.46875"></stop><stop stop-opacity="1" stop-color="rgb(53.387451%, 50.765991%, 99.810791%)" offset="0.484375"></stop><stop stop-opacity="1" stop-color="rgb(53.659058%, 50.863647%, 99.804688%)" offset="0.497537"></stop><stop stop-opacity="1" stop-color="rgb(53.794861%, 50.912476%, 99.801636%)" offset="0.5"></stop><stop stop-opacity="1" stop-color="rgb(53.930664%, 50.959778%, 99.798584%)" offset="0.502463"></stop><stop stop-opacity="1" stop-color="rgb(54.066467%, 51.008606%, 99.795532%)" offset="0.515625"></stop><stop stop-opacity="1" stop-color="rgb(54.202271%, 51.057434%, 99.79248%)" offset="0.53125"></stop><stop stop-opacity="1" stop-color="rgb(54.475403%, 51.15509%, 99.786377%)" offset="0.546875"></stop><stop stop-opacity="1" stop-color="rgb(54.747009%, 51.252747%, 99.780273%)" offset="0.5625"></stop><stop stop-opacity="1" stop-color="rgb(55.018616%, 51.348877%, 99.77417%)" offset="0.578125"></stop><stop stop-opacity="1" stop-color="rgb(55.290222%, 51.446533%, 99.768066%)" offset="0.59375"></stop><stop stop-opacity="1" stop-color="rgb(55.561829%, 51.544189%, 99.761963%)" offset="0.609375"></stop><stop stop-opacity="1" stop-color="rgb(55.833435%, 51.641846%, 99.755859%)" offset="0.625"></stop><stop stop-opacity="1" stop-color="rgb(56.105042%, 51.737976%, 99.749756%)" offset="0.640625"></stop><stop stop-opacity="1" stop-color="rgb(56.376648%, 51.835632%, 99.742126%)" offset="0.65625"></stop><stop stop-opacity="1" stop-color="rgb(56.648254%, 51.933289%, 99.736023%)" offset="0.671875"></stop><stop stop-opacity="1" stop-color="rgb(56.919861%, 52.030945%, 99.729919%)" offset="0.6875"></stop><stop stop-opacity="1" stop-color="rgb(57.192993%, 52.127075%, 99.723816%)" offset="0.703125"></stop><stop stop-opacity="1" stop-color="rgb(57.4646%, 52.224731%, 99.717712%)" offset="0.71875"></stop><stop stop-opacity="1" stop-color="rgb(57.736206%, 52.322388%, 99.711609%)" offset="0.734375"></stop><stop stop-opacity="1" stop-color="rgb(58.007812%, 52.420044%, 99.705505%)" offset="0.75"></stop><stop stop-opacity="1" stop-color="rgb(58.279419%, 52.516174%, 99.699402%)" offset="0.765625"></stop><stop stop-opacity="1" stop-color="rgb(58.551025%, 52.613831%, 99.693298%)" offset="0.78125"></stop><stop stop-opacity="1" stop-color="rgb(58.822632%, 52.711487%, 99.687195%)" offset="0.796875"></stop><stop stop-opacity="1" stop-color="rgb(59.094238%, 52.809143%, 99.681091%)" offset="0.8125"></stop><stop stop-opacity="1" stop-color="rgb(59.365845%, 52.906799%, 99.674988%)" offset="0.828125"></stop><stop stop-opacity="1" stop-color="rgb(59.637451%, 53.00293%, 99.668884%)" offset="0.84375"></stop><stop stop-opacity="1" stop-color="rgb(59.910583%, 53.100586%, 99.662781%)" offset="0.859375"></stop><stop stop-opacity="1" stop-color="rgb(60.18219%, 53.198242%, 99.656677%)" offset="0.875"></stop><stop stop-opacity="1" stop-color="rgb(60.453796%, 53.295898%, 99.650574%)" offset="0.890625"></stop><stop stop-opacity="1" stop-color="rgb(60.725403%, 53.392029%, 99.64447%)" offset="0.90625"></stop><stop stop-opacity="1" stop-color="rgb(60.997009%, 53.489685%, 99.638367%)" offset="0.921875"></stop><stop stop-opacity="1" stop-color="rgb(61.268616%, 53.587341%, 99.632263%)" offset="0.9375"></stop><stop stop-opacity="1" stop-color="rgb(61.540222%, 53.684998%, 99.62616%)" offset="0.953125"></stop><stop stop-opacity="1" stop-color="rgb(61.811829%, 53.781128%, 99.620056%)" offset="0.96875"></stop><stop stop-opacity="1" stop-color="rgb(62.083435%, 53.878784%, 99.612427%)" offset="0.984375"></stop><stop stop-opacity="1" stop-color="rgb(62.355042%, 53.97644%, 99.606323%)" offset="1"></stop></linearGradient></defs><g clip-path="url(#id1)"><g clip-path="url(#id2)"><path fill="url(#id3)" d="M 7.125 6.9375 L 7.125 376.6875 L 376.875 376.6875 L 376.875 6.9375 Z M 7.125 6.9375 " fill-rule="nonzero"></path></g></g><g fill="#ffffff" fill-opacity="1"><g transform="translate(45.927349, 321.716195)"><g><path d="M 147.4375 -259.953125 C 191.738281 -259.953125 223.832031 -246.613281 243.71875 -219.9375 C 263.601562 -193.269531 271.765625 -155.847656 268.203125 -107.671875 L 73.234375 -107.671875 C 77.765625 -87.617188 87.140625 -71.851562 101.359375 -60.375 C 115.585938 -48.90625 132.890625 -43.171875 153.265625 -43.171875 C 182.359375 -43.171875 206.609375 -53.191406 226.015625 -73.234375 L 255.59375 -41.703125 C 229.082031 -12.609375 193.515625 1.9375 148.890625 1.9375 C 109.117188 1.9375 77.1875 -10.101562 53.09375 -34.1875 C 29.007812 -58.28125 16.96875 -89.722656 16.96875 -128.515625 C 16.96875 -167.316406 29.09375 -198.84375 53.34375 -223.09375 C 77.59375 -247.34375 108.957031 -259.628906 147.4375 -259.953125 Z M 72.265625 -148.40625 L 219.703125 -148.40625 C 218.734375 -169.101562 211.78125 -185.429688 198.84375 -197.390625 C 185.914062 -209.359375 168.941406 -215.34375 147.921875 -215.34375 C 127.554688 -215.34375 110.660156 -209.359375 97.234375 -197.390625 C 83.816406 -185.429688 75.492188 -169.101562 72.265625 -148.40625 Z M 72.265625 -148.40625 "></path></g></g></g></svg> 